<?xml version="1.0" standalone="no"?>
<!DOCTYPE svg PUBLIC "-//W3C//DTD SVG 20010904//EN"
 "http://www.w3.org/TR/2001/REC-SVG-20010904/DTD/svg10.dtd">
<svg version="1.0" xmlns="http://www.w3.org/2000/svg"
 width="256.000000pt" height="256.000000pt" viewBox="0 0 256.000000 256.000000"
 preserveAspectRatio="xMidYMid meet">

<g transform="translate(0.000000,256.000000) scale(0.100000,-0.100000)"
fill="#000000" stroke="none">
<path d="M1052 2325 c-345 -63 -622 -270 -772 -580 -59 -120 -85 -213 -101
-351 -21 -189 13 -378 101 -559 229 -472 761 -701 1260 -543 203 65 369 179
501 346 414 520 245 1288 -351 1592 -180 92 -441 131 -638 95z m329 -121 c312
-59 554 -246 685 -530 60 -129 77 -211 78 -369 1 -128 -16 -265 -33 -265 -3 0
-65 60 -138 132 -131 131 -133 133 -133 178 0 82 -57 140 -137 140 -81 0 -137
-64 -131 -151 3 -48 2 -49 -67 -119 l-70 -70 -151 151 -151 151 14 41 c44 125
-53 264 -191 275 -141 11 -260 -141 -213 -275 l14 -41 -213 -213 -212 -212
-11 39 c-65 244 -15 524 134 749 81 121 245 260 377 318 182 81 370 105 549
71z m-392 -569 c74 -38 58 -150 -24 -171 -52 -13 -116 38 -115 93 1 43 50 92
93 93 10 0 31 -7 46 -15z m768 -255 c22 -45 -24 -98 -71 -81 -28 11 -46 48
-37 75 18 48 84 52 108 6z m-812 -39 c17 0 46 6 65 13 l35 13 181 -179 c148
-146 185 -178 209 -178 22 0 50 21 135 105 151 150 139 151 343 -53 l157 -157
-40 -69 c-73 -125 -148 -210 -250 -285 -269 -198 -584 -243 -893 -127 -190 72
-397 257 -487 435 l-22 44 232 232 232 232 36 -13 c21 -7 51 -13 67 -13z"/>
</g>
</svg>
